<?xml version="1.0" encoding="utf-8"?>
<!-- Generator: Adobe Illustrator 27.8.1, SVG Export Plug-In . SVG Version: 6.00 Build 0)  -->
<svg version="1.1" id="圖層_1" xmlns="http://www.w3.org/2000/svg" xmlns:xlink="http://www.w3.org/1999/xlink" x="0px" y="0px"
	 viewBox="0 0 184 42" style="enable-background:new 0 0 184 42;" xml:space="preserve">
<style type="text/css">
	.st0{fill:#808284;}
	.st1{fill:#B8BABC;}
	.st2{fill:#AECB44;}
</style>
<path class="st0" d="M0,13.8l3.7-0.4c0.2,1.2,0.7,2.1,1.4,2.7C5.8,16.6,6.7,17,7.9,17s2.2-0.3,2.8-0.8c0.6-0.5,0.9-1.1,0.9-1.8
	c0-0.4-0.1-0.8-0.4-1.1c-0.3-0.3-0.7-0.6-1.4-0.8c-0.4-0.2-1.5-0.4-3.1-0.8c-2-0.5-3.5-1.1-4.3-1.8c-1.2-1-1.7-2.2-1.7-3.7
	c0-0.9,0.3-1.8,0.8-2.6s1.3-1.4,2.4-1.8c1-0.4,2.3-0.6,3.7-0.6c2.4,0,4.2,0.5,5.4,1.5s1.8,2.4,1.9,4.1L11,6.8
	c-0.2-0.9-0.5-1.6-1.1-2C9.4,4.3,8.6,4.1,7.5,4.1s-2,0.2-2.6,0.7C4.5,5,4.3,5.4,4.3,5.9c0,0.4,0.2,0.8,0.6,1.1
	c0.5,0.4,1.7,0.8,3.5,1.2c1.9,0.4,3.2,0.9,4.1,1.3c0.9,0.5,1.6,1.1,2.1,1.9c0.5,0.8,0.8,1.8,0.8,2.9s-0.3,2-0.9,3
	c-0.6,0.9-1.5,1.6-2.6,2c-1.1,0.5-2.5,0.7-4.1,0.7c-2.4,0-4.2-0.5-5.5-1.6C1,17.5,0.2,15.9,0,13.8z M16.6,1.4h3.8v10
	c0,1.6,0,2.6,0.1,3.1c0.2,0.8,0.6,1.4,1.2,1.8c0.6,0.5,1.5,0.7,2.5,0.7c1.1,0,1.9-0.2,2.5-0.6s0.9-1,1-1.6s0.2-1.7,0.2-3.1V1.4h3.8
	v9.7c0,2.2-0.1,3.8-0.3,4.7c-0.2,0.9-0.6,1.7-1.1,2.3c-0.6,0.6-1.3,1.1-2.2,1.5c-0.9,0.4-2.1,0.6-3.6,0.6c-1.8,0-3.2-0.2-4.1-0.6
	s-1.7-0.9-2.2-1.6c-0.5-0.6-0.9-1.3-1.1-2c-0.2-1-0.4-2.6-0.4-4.7L16.6,1.4L16.6,1.4z M42.5,13.1V10h8.2v7.3c-0.8,0.7-2,1.4-3.5,2
	s-3.1,0.9-4.6,0.9c-2,0-3.7-0.4-5.2-1.2c-1.5-0.8-2.6-2-3.3-3.5S33,12.4,33,10.6c0-1.9,0.4-3.6,1.2-5.1s2-2.6,3.6-3.4
	c1.2-0.6,2.7-0.9,4.5-0.9c2.3,0,4.2,0.5,5.5,1.4c1.3,1,2.2,2.3,2.5,4l-3.8,0.7c-0.3-0.9-0.8-1.6-1.5-2.1s-1.7-0.8-2.8-0.8
	c-1.7,0-3,0.5-4,1.5c-0.7,1-1.2,2.5-1.2,4.5c0,2.2,0.5,3.8,1.5,4.9s2.3,1.6,3.9,1.6c0.8,0,1.6-0.2,2.4-0.5c0.8-0.3,1.5-0.7,2.1-1.1
	v-2.3h-4.4V13.1z M69.3,19.8h-4.2l-1.6-4.2H56l-1.6,4.2h-4.1l7.4-18.4h4L69.3,19.8z M62.3,12.4l-2.6-6.8l-2.6,6.8
	C57.1,12.4,62.3,12.4,62.3,12.4z M69.4,19.8V1.4h8c2,0,3.5,0.2,4.4,0.5s1.6,0.9,2.2,1.8c0.5,0.8,0.8,1.8,0.8,2.9
	c0,1.4-0.4,2.5-1.3,3.4c-0.8,0.9-2.1,1.5-3.7,1.7c0.8,0.5,1.5,1,2,1.5c0.5,0.6,1.3,1.6,2.2,3l2.3,3.6h-4.6l-2.8-4
	c-1-1.4-1.7-2.3-2-2.7c-0.4-0.4-0.7-0.6-1.1-0.8c-0.4-0.1-1-0.2-1.9-0.2h-0.8v7.7H69.4z M73.2,9.1H76c1.8,0,3-0.1,3.4-0.2
	c0.5-0.2,0.8-0.4,1.1-0.8c0.3-0.4,0.4-0.8,0.4-1.4s-0.2-1.1-0.5-1.5S79.6,4.6,79,4.5c-0.3,0-1.2-0.1-2.8-0.1h-3
	C73.2,4.4,73.2,9.1,73.2,9.1z M91.9,19.8V1.4h13v3.1h-9.1v4.4h7.9V12h-7.9v7.8C95.8,19.8,91.9,19.8,91.9,19.8z M106,1.4h3.8v10
	c0,1.6,0,2.6,0.1,3.1c0.2,0.8,0.6,1.4,1.2,1.8c0.6,0.5,1.5,0.7,2.5,0.7c1.1,0,1.9-0.2,2.5-0.6s0.9-1,1-1.6s0.2-1.7,0.2-3.1V1.4h3.8
	v9.7c0,2.2-0.1,3.8-0.3,4.7c-0.2,0.9-0.6,1.7-1.1,2.3c-0.6,0.6-1.3,1.1-2.2,1.5c-0.9,0.4-2.1,0.6-3.6,0.6c-1.8,0-3.2-0.2-4.1-0.6
	s-1.7-0.9-2.2-1.6c-0.5-0.6-0.9-1.3-1.1-2c-0.3-1-0.4-2.6-0.4-4.7V1.4H106z M123.1,19.8V1.4h3.7l7.7,12.3V1.4h3.5v18.4h-3.8l-7.6-12
	v12H123.1z"/>
<path class="st1" d="M10.5,34.2c-0.4,1.5-1.1,2.5-2.2,3.1c-0.7,0.4-1.5,0.6-2.4,0.6c-1.7,0-2.9-0.5-3.8-1.4c-1-1.1-1.4-2.6-1.4-4.3
	c0-1.8,0.5-3.3,1.6-4.3c0.9-0.9,2.1-1.4,3.6-1.4c1.1,0,2,0.3,2.7,0.8c0.8,0.6,1.4,1.4,1.7,2.5L8.9,30c-0.5-1.5-1.5-2.3-3-2.3
	c-1.4,0-2.3,0.5-3,1.5c-0.5,0.8-0.7,1.7-0.7,2.9c0,1.5,0.3,2.7,1,3.4c0.6,0.8,1.5,1.1,2.6,1.1c1.7,0,2.8-0.9,3.2-2.8
	C9,33.8,10.5,34.1,10.5,34.2z M21.9,37.8H20l-1.4-2.3c-0.7-1.2-1.3-1.9-1.8-2.2c-0.3-0.3-0.8-0.4-1.5-0.4h-1.7v4.9h-1.5V26.6H17
	c1,0,1.7,0.1,2.2,0.3c0.5,0.2,0.9,0.6,1.3,1.1c0.3,0.5,0.5,1,0.5,1.6c0,1.7-1,2.7-3.1,3c0.8,0.4,1.5,1,2.1,2
	C20,34.7,21.9,37.8,21.9,37.8z M19.4,29.7c0-0.7-0.3-1.2-0.8-1.5c-0.4-0.2-0.9-0.3-1.5-0.3h-3.5v3.6h3.1c0.8,0,1.4-0.1,1.8-0.3
	c0.3-0.1,0.5-0.3,0.7-0.6C19.4,30.4,19.4,30.1,19.4,29.7z M31.3,37.8H23V26.6h8v1.3h-6.5v3.4h6.1v1.3h-6.1v3.7h6.8V37.8z M42.2,37.8
	h-1.7l-1.3-3.4h-4.6l-1.2,3.4h-1.5l4.2-11.1h1.6L42.2,37.8z M38.8,33.2l-1.2-3.1c-0.3-0.9-0.6-1.7-0.8-2.3c-0.2,0.8-0.3,1.5-0.6,2.1
	L35,33.2C35,33.2,38.8,33.2,38.8,33.2z M51,28h-3.7v9.8h-1.5V28h-3.6v-1.3H51C51,26.7,51,28,51,28z M54,37.8h-1.5V26.6H54V37.8z
	 M65.5,26.6l-4.3,11.1h-1.5l-4.3-11.1H57l2.9,8.2c0.1,0.3,0.3,0.9,0.5,1.6c0.2-0.6,0.3-1.2,0.6-1.8l3-8H65.5z M74.9,37.8h-8.3V26.6
	h8v1.3h-6.5v3.4h6.1v1.3h-6.1v3.7h6.8V37.8z M78.4,37.8h-1.6v-1.6h1.6V37.8z"/>
<path class="st2" d="M179.6,10.9h-4.8V9.6H163c-1.3,0-2.4,1.1-2.4,2.4s1.1,2.4,2.4,2.4h10.7c3.5,0,6.4,2.9,6.4,6.4s-2.9,6.4-6.4,6.4
	h-12.3v1.2h-4.8v-1.2h-6.3v14.5h14v-8.3H184V9.6h-4.4V10.9z M150.3,0.4v22.9h6.3V22h4.8v1.2h12.3c1.3,0,2.4-1.1,2.4-2.4
	s-1.1-2.4-2.4-2.4H163c-3.5,0-6.4-2.9-6.4-6.4s2.9-6.4,6.4-6.4h11.8v-1h4.8v1h4.4V0.4H150.3z"/>
</svg>
