<svg width="24" height="24" viewBox="0 0 24 24" fill="currentColor" xmlns="http://www.w3.org/2000/svg">
<path d="M9.51367 10.5688H14.2471V13.3532H9.51367V10.5688Z"/>
<path d="M0.928125 7.32031C0.415522 7.32031 0 7.73583 0 8.24844V15.6734C0 16.186 0.415522 16.6016 0.928125 16.6016H2.08828V7.32031H0.928125Z"/>
<path d="M8.12109 5.92813C8.12109 5.41552 7.70557 5 7.19297 5H4.40859C3.89599 5 3.48047 5.41552 3.48047 5.92813V17.9938C3.48047 18.5064 3.89599 18.9219 4.40859 18.9219H7.19297C7.70557 18.9219 8.12109 18.5064 8.12109 17.9938V5.92813Z"/>
<path d="M22.832 7.32031H21.6719V16.6016H22.832C23.3446 16.6016 23.7602 16.186 23.7602 15.6734V8.24844C23.7602 7.73583 23.3446 7.32031 22.832 7.32031Z"/>
<path d="M19.3531 5H16.5688C16.0561 5 15.6406 5.41552 15.6406 5.92813V17.9938C15.6406 18.5064 16.0561 18.9219 16.5688 18.9219H19.3531C19.8657 18.9219 20.2813 18.5064 20.2813 17.9938V5.92813C20.2813 5.41552 19.8657 5 19.3531 5Z"/>
</svg>
