<svg width="32" height="32" viewBox="0 0 32 32" fill="none" xmlns="http://www.w3.org/2000/svg">
<path d="M28.5798 15.3188L25.0612 13.5593C24.3964 13.2271 23.6586 13.1212 22.9454 13.2411C23.101 14.1428 23.1813 15.0652 23.1813 16.0001C23.1813 16.935 23.101 17.8574 22.9453 18.7591C23.6585 18.879 24.3964 18.7732 25.0611 18.4409L28.5797 16.6814C28.8378 16.5524 29.0008 16.2887 29.0008 16.0001C29.0008 15.7116 28.8378 15.4479 28.5798 15.3188Z" fill="#E12020"/>
<path d="M8.47495 18.8701L9.88056 16.7616H15.2658C15.2762 16.5083 15.2815 16.2544 15.2815 15.9999C15.2815 15.7455 15.2762 15.4915 15.2658 15.2382H9.88056L8.47495 13.1297C8.33368 12.9178 8.09582 12.7905 7.84115 12.7905H3.76172C3.4808 12.7905 3.22268 12.9452 3.09014 13.1928C2.9576 13.4405 2.97208 13.741 3.12792 13.9747L4.47803 15.9999L3.12792 18.0251C2.97213 18.2588 2.9576 18.5593 3.09014 18.807C3.22268 19.0547 3.4808 19.2093 3.76172 19.2093H7.8411C8.09582 19.2093 8.33362 19.082 8.47495 18.8701Z" fill="#E12020"/>
<path d="M13.9319 3.10085C13.8409 3.052 13.7245 3 13.5522 3C13.3062 3 13.0648 3.11898 12.9181 3.33906L7.63281 11.2671H7.84076C8.32821 11.2671 8.793 11.4218 9.17635 11.6982L13.5639 5.1168C15.8296 8.58209 16.8046 12.4168 16.8046 15.9999C16.8046 19.5831 15.8296 23.4178 13.5639 26.883L9.17635 20.3016C8.793 20.578 8.32821 20.7327 7.84076 20.7327H7.63281L12.9181 28.6608C13.0648 28.8809 13.3062 28.9998 13.5522 28.9998C13.7689 28.9998 13.8979 28.9186 14.0657 28.8263C18.7526 26.2489 21.6565 21.3505 21.6565 15.9999C21.6565 10.5986 18.6973 5.65808 13.9319 3.10085Z" fill="#E12020"/>
</svg>
