<svg width="24" height="24" viewBox="0 0 24 24" fill="none" xmlns="http://www.w3.org/2000/svg">
<g clip-path="url(#clip0_27_716)">
<path d="M12 0C5.4 0 0 5.4 0 12C0 18.6 5.4 24 12 24C18.6 24 24 18.6 24 12C24 5.4 18.6 0 12 0ZM12 1.2C18 1.2 22.8 6 22.8 12C22.8 18 18 22.8 12 22.8C6 22.8 1.2 18 1.2 12C1.2 6 6 1.2 12 1.2Z" fill="white"/>
<path d="M12 3C7.03125 3 3 7.03125 3 12C3 16.9687 7.03125 21 12 21C16.9687 21 21 16.9687 21 12C21 7.03125 16.9687 3 12 3ZM11.0625 11.0625H12.9375C14.4375 11.0625 15.6562 12.2812 15.6562 13.7812C15.6562 15.2812 14.4375 16.5 12.9375 16.5V17.4375C12.9375 17.9062 12.5625 18.375 12 18.375C11.4375 18.375 11.0625 18 11.0625 17.4375V16.5C9.5625 16.5 8.34375 15.2812 8.34375 13.7812C8.34375 12.2812 8.71875 12.8437 9.28125 12.8437C9.84375 12.8437 10.2187 13.2187 10.2187 13.7812C10.2187 14.3437 10.5938 14.7187 11.1563 14.7187H13.0313C13.5938 14.7187 13.9688 14.3437 13.9688 13.7812C13.9688 13.2187 13.5938 12.8437 13.0313 12.8437H11.1563C9.65625 12.8437 8.4375 11.625 8.4375 10.125C8.4375 8.625 9.65625 7.40625 11.1563 7.40625V6.46875C11.1563 6 11.5313 5.53125 12.0938 5.53125C12.6563 5.53125 13.0313 5.90625 13.0313 6.46875V7.40625C14.5313 7.40625 15.75 8.625 15.75 10.125C15.75 11.625 15.375 11.0625 14.8125 11.0625C14.25 11.0625 13.875 10.6875 13.875 10.125C13.875 9.5625 13.5 9.1875 12.9375 9.1875H11.0625C10.5 9.1875 10.125 9.5625 10.125 10.125C10.125 10.6875 10.5 11.0625 11.0625 11.0625Z" fill="white"/>
</g>
<defs>
<clipPath id="clip0_27_716">
<rect width="24" height="24" fill="white"/>
</clipPath>
</defs>
</svg>
