<svg width="24" height="33" viewBox="0 0 24 33" fill="none" xmlns="http://www.w3.org/2000/svg">
<path d="M11.999 6.50488C8.77103 6.50488 6.14453 9.03086 6.14453 12.1352C6.14453 15.2396 8.77103 17.7656 11.999 17.7656C15.2269 17.7656 17.8534 15.2396 17.8534 12.1352C17.8534 9.03086 15.2269 6.50488 11.999 6.50488Z" fill="white"/>
<path d="M10.6786 25.7287L10.6472 25.7011L9.90124 25.0519L8.1458 23.5244L6.23708 23.722L5.06902 23.8423L4.79209 23.8712L3.90028 23.9633L1.0918 29.703L5.44102 29.7583L8.25613 32.9457L11.4567 26.4056L10.6786 25.7287Z" fill="white"/>
<path d="M20.0877 23.9633L19.1959 23.8712L18.9189 23.8429L17.7509 23.722L15.8421 23.5244L14.0867 25.0519L13.3408 25.7011L13.3093 25.7287L12.5312 26.4056L15.7318 32.9457L18.5469 29.7583L22.8961 29.703L20.0877 23.9633Z" fill="white"/>
<path d="M22.2531 12.1346L23.9999 8.38484L20.295 6.33876L19.4165 2.3175L15.1683 2.75627L12 0L8.83159 2.75634L4.5834 2.31756L3.70497 6.33876L0 8.38478L1.74674 12.1345L0 15.8842L3.70497 17.9302L4.5834 21.9515L4.90722 21.918L6.07596 21.7971L7.24402 21.6767L7.55714 21.6446H7.55781L8.83159 21.5126L9.78963 22.3459L10.8005 23.2254L11.1157 23.4995L11.5786 23.9023L12 24.269L12.4215 23.9023L12.8844 23.4995L13.1995 23.2254L13.9856 22.5421L13.9863 22.5415L15.1684 21.5127L17.233 21.7257H17.2336L17.4437 21.7476L17.924 21.7971H17.9247L19.0928 21.9181L19.4166 21.9516L20.295 17.9303L24 15.8843L22.2531 12.1346ZM12 19.6951C7.66546 19.6951 4.13846 16.3037 4.13846 12.1345C4.13846 7.96588 7.66546 4.57386 12 4.57386C16.3345 4.57386 19.8615 7.96588 19.8615 12.1345C19.8615 16.3037 16.3345 19.6951 12 19.6951Z" fill="white"/>
</svg>
