<svg xmlns="http://www.w3.org/2000/svg" viewBox="0 0 20 20.01"><path d="M13.69,20H6.41c-.5-.05-1-.08-1.5-.15A5.12,5.12,0,0,1,.43,16.11a10.64,10.64,0,0,1-.34-2.26C0,12.91,0,12,0,11V9c0-.22,0-.44,0-.66,0-1.05,0-2.11.12-3.16A5.24,5.24,0,0,1,5,.15,42,42,0,0,1,9.47,0c1.89,0,3.78,0,5.66.16a5.09,5.09,0,0,1,4.66,4.17,6.94,6.94,0,0,1,.2,1.5c0,3,0,5.95-.07,8.91a5.18,5.18,0,0,1-4.42,5C14.9,19.9,14.29,19.93,13.69,20Zm-3.63-1.87h0c1.44,0,2.89,0,4.33,0a3.58,3.58,0,0,0,3.75-3.59c.1-1.47.11-2.94.1-4.42s0-3.17-.11-4.76A3.33,3.33,0,0,0,15.9,2.2a5.11,5.11,0,0,0-1.59-.32c-2.84,0-5.68-.06-8.52,0A3.58,3.58,0,0,0,2,5.63c-.1,1.46-.09,2.92-.09,4.38s0,3.07.11,4.61a3.31,3.31,0,0,0,2,3.06,5.27,5.27,0,0,0,1.84.43C7.19,18.17,8.62,18.13,10.06,18.13Z" transform="translate(0 0)"/><path d="M4.91,10A5.14,5.14,0,1,1,10,15.14,5.14,5.14,0,0,1,4.91,10Zm8.47,0a3.33,3.33,0,1,0-3.32,3.35A3.34,3.34,0,0,0,13.38,10Z" transform="translate(0 0)"/><path d="M16.59,4.68a1.2,1.2,0,1,1-1.2-1.23A1.21,1.21,0,0,1,16.59,4.68Z" transform="translate(0 0)"/></svg>