<svg xmlns="http://www.w3.org/2000/svg" viewBox="0 0 312.78 54.77"><polygon points="34.38 0 31.99 0 31.99 34.04 32 34.04 36.58 31.38 34.38 0"/><polygon points="63.09 49.87 37.02 32.26 32.44 34.92 61.9 51.94 63.09 49.87"/><polygon points="28.72 0 31.11 0 31.11 34.04 31.1 34.04 26.52 31.38 28.72 0"/><polygon points="0 49.87 26.07 32.26 30.66 34.92 1.19 51.94 0 49.87"/><polygon points="31.09 35.67 1.61 52.7 2.81 54.77 31.1 40.97 31.1 35.69 31.09 35.67"/><polygon points="60.26 54.77 61.46 52.7 31.99 35.67 31.98 35.69 31.98 40.97 31.98 40.97 60.26 54.77"/><polygon points="98.42 26.12 89.93 26.12 94.31 14.09 102.8 14.09 98.42 26.12"/><polygon points="157.09 14.09 156.3 16.36 164.5 16.36 160.98 26.12 168.98 26.12 172.5 16.36 179.97 16.36 180.75 14.09 157.09 14.09"/><path d="M73.9,26.12l1.83-4.88H88l.86-2.36H76.57l.94-2.52H91.05l.82-2.27H70l-4.38,12H73.9Z" transform="translate(0 0)"/><path d="M128.39,17a2.15,2.15,0,0,0-2-2.88H105.55l-4.27,12h8.31l3.52-9.76H119c.9,0,1.3.74.88,1.65s-.31,1.65-2.42,1.65h-5.14l5,6.46h9.48l-4.39-4.88h4.41Z" transform="translate(0 0)"/><path d="M141.56,16.36h12.18l.83-2.27H136.26a5.05,5.05,0,0,0-4.74,3.32l-.44,1.26A2,2,0,0,0,133,21.38H143.8l-.45,1.21a2,2,0,0,1-1.82,1.27H129.35l-.83,2.26h18.31a5,5,0,0,0,4.74-3.32l.44-1.25a2,2,0,0,0-1.93-2.71H139.3l.44-1.21A2,2,0,0,1,141.56,16.36Z" transform="translate(0 0)"/><path d="M221,23.77a.71.71,0,0,1-.66-.95l3.21-8.73h-8.31l-3,8.2a2.85,2.85,0,0,0,2.68,3.83h17.76l.86-2.35Z" transform="translate(0 0)"/><path d="M196,23.77a.71.71,0,0,1-.66-.95l1.92-5.19a1.94,1.94,0,0,1,1.82-1.27h12.18l.82-2.27h-18.3A5.06,5.06,0,0,0,189,17.41l-1.77,4.88a2.85,2.85,0,0,0,2.68,3.83h17.76l.86-2.35Z" transform="translate(0 0)"/><path d="M275.53,16.36h12.19l.82-2.27H270.23a5.05,5.05,0,0,0-4.74,3.32l-.43,1.26A2,2,0,0,0,267,21.38h10.79l-.45,1.21a1.94,1.94,0,0,1-1.82,1.27H263.32l-.82,2.26h18.3a5.05,5.05,0,0,0,4.75-3.32l.43-1.25a2,2,0,0,0-1.93-2.71H273.27l.44-1.21A2,2,0,0,1,275.53,16.36Z" transform="translate(0 0)"/><path d="M299.77,16.36H312l.83-2.27H294.47a5.05,5.05,0,0,0-4.74,3.32l-.44,1.26a2,2,0,0,0,1.93,2.71H302l-.45,1.21a2,2,0,0,1-1.82,1.27H287.56l-.83,2.26H305a5,5,0,0,0,4.74-3.32l.44-1.25a2,2,0,0,0-1.93-2.71H297.51l.44-1.21A2,2,0,0,1,299.77,16.36Z" transform="translate(0 0)"/><path d="M260.71,14.09H239.89l-4.27,12h8.31l.82-2.26h7.44l-.79,2.26h8L262.74,17A2.16,2.16,0,0,0,260.71,14.09Zm-15.06,7.28,1.81-5h5.9c.9,0,1.3.74.88,1.65l-1.18,3.36Z" transform="translate(0 0)"/><path d="M135.61,35v1.08h-3.1v1.71h2.38v1.07h-2.38v2.82H131V35Z" transform="translate(0 0)"/><path d="M150.9,35v6.68h-1.48V35Z" transform="translate(0 0)"/><path d="M170.17,35v1.08h-2v5.6h-1.49v-5.6h-2V35Z" transform="translate(0 0)"/><path d="M190.36,41.71h-1.49l-3.37-4.58v4.58H184V35h1.49l3.37,4.59V35h1.49Z" transform="translate(0 0)"/><path d="M206.07,36.11v1.68h2.5v1.06h-2.5v1.77h2.81v1.09h-4.3V35h4.3v1.09Z" transform="translate(0 0)"/><path d="M224.15,41.54a2.29,2.29,0,0,1-1-.69,1.73,1.73,0,0,1-.37-1.07h1.59a.89.89,0,0,0,.33.66,1.27,1.27,0,0,0,.8.23,1.33,1.33,0,0,0,.82-.22.71.71,0,0,0,.3-.59.64.64,0,0,0-.21-.49,1.62,1.62,0,0,0-.5-.3q-.3-.1-.84-.24a10.83,10.83,0,0,1-1.17-.38,2,2,0,0,1-.78-.56,1.55,1.55,0,0,1-.32-1,1.7,1.7,0,0,1,.33-1,2.14,2.14,0,0,1,.92-.67,3.62,3.62,0,0,1,1.36-.24,3.16,3.16,0,0,1,1.87.51,1.79,1.79,0,0,1,.79,1.4h-1.64a.73.73,0,0,0-.32-.57,1.31,1.31,0,0,0-.8-.23,1.1,1.1,0,0,0-.7.21.68.68,0,0,0-.26.58.56.56,0,0,0,.2.44,1.39,1.39,0,0,0,.49.29c.19.07.47.16.82.25a9,9,0,0,1,1.18.39,2,2,0,0,1,.79.57,1.5,1.5,0,0,1,.33,1,1.81,1.81,0,0,1-.31,1,2.1,2.1,0,0,1-.91.73,3.35,3.35,0,0,1-1.41.27A3.88,3.88,0,0,1,224.15,41.54Z" transform="translate(0 0)"/><path d="M243.38,41.54a2.29,2.29,0,0,1-1-.69,1.67,1.67,0,0,1-.37-1.07h1.59a.91.91,0,0,0,.32.66,1.32,1.32,0,0,0,.81.23,1.35,1.35,0,0,0,.82-.22.72.72,0,0,0,.29-.59.63.63,0,0,0-.2-.49,1.62,1.62,0,0,0-.5-.3c-.21-.07-.48-.15-.84-.24a10.83,10.83,0,0,1-1.17-.38,2,2,0,0,1-.78-.56,1.55,1.55,0,0,1-.32-1,1.7,1.7,0,0,1,.33-1,2.14,2.14,0,0,1,.92-.67,3.62,3.62,0,0,1,1.36-.24,3.16,3.16,0,0,1,1.87.51,1.79,1.79,0,0,1,.79,1.4h-1.64a.73.73,0,0,0-.32-.57,1.31,1.31,0,0,0-.8-.23,1.08,1.08,0,0,0-.7.21.68.68,0,0,0-.26.58.56.56,0,0,0,.2.44,1.39,1.39,0,0,0,.49.29,7.88,7.88,0,0,0,.82.25,9.57,9.57,0,0,1,1.18.39,2.11,2.11,0,0,1,.79.57,1.55,1.55,0,0,1,.32,1,1.79,1.79,0,0,1-.3,1,2.1,2.1,0,0,1-.91.73,3.38,3.38,0,0,1-1.41.27A3.88,3.88,0,0,1,243.38,41.54Z" transform="translate(0 0)"/></svg>