<svg xmlns="http://www.w3.org/2000/svg" viewBox="0 0 20 17.36"><polygon points="10.9 0 10.14 0 10.14 10.79 10.14 10.79 11.6 9.95 10.9 0" /><polygon points="20 15.81 11.73 10.23 10.28 11.07 19.62 16.46 20 15.81" /><polygon points="9.1 0 9.86 0 9.86 10.79 9.86 10.79 8.4 9.95 9.1 0" /><polygon points="0 15.81 8.27 10.23 9.72 11.07 0.38 16.46 0 15.81" /><polygon points="9.85 11.31 0.51 16.71 0.89 17.36 9.86 12.99 9.86 11.31 9.85 11.31"/><polygon points="19.1 17.36 19.48 16.71 10.14 11.31 10.14 11.31 10.14 12.99 10.14 12.99 19.1 17.36"/></svg>